<?xml version="1.0" standalone="no"?><!DOCTYPE svg PUBLIC "-//W3C//DTD SVG 1.1//EN" "http://www.w3.org/Graphics/SVG/1.1/DTD/svg11.dtd"><svg t="1723174181251" class="icon" viewBox="0 0 1024 1024" version="1.1" xmlns="http://www.w3.org/2000/svg" p-id="9690" xmlns:xlink="http://www.w3.org/1999/xlink" width="512" height="512"><path d="M501.333333 85.333333C731.093333 85.333333 917.333333 271.573333 917.333333 501.333333c0 106.752-40.213333 204.117333-106.304 277.76l116.608 116.629334a37.653333 37.653333 0 0 1-50.389333 55.829333l-2.858667-2.56-118.549333-118.570667A414.208 414.208 0 0 1 501.333333 917.333333C271.573333 917.333333 85.333333 731.093333 85.333333 501.333333S271.573333 85.333333 501.333333 85.333333z m0 64.768c-189.397333 0-351.018667 161.834667-351.018666 351.232 0 189.397333 161.621333 353.130667 351.018666 353.130667 85.824 0 166.229333-33.621333 228.501334-88a37.333333 37.333333 0 0 1 17.642666-16.469333c65.066667-64.682667 106.261333-153.429333 106.261334-248.661334 0-189.397333-162.986667-351.232-352.405334-351.232zM624.512 341.333333c20.330667 0 36.821333 14.336 36.821333 32 0 16.64-14.613333 30.293333-33.28 31.850667l-3.541333 0.149333H533.333333v283.626667c0 20.096-14.336 36.373333-32 36.373333-16.64 0-30.293333-14.421333-31.850666-32.874666L469.333333 688.96V405.333333h-90.858666c-20.330667 0-36.821333-14.336-36.821334-32 0-16.64 14.613333-30.293333 33.28-31.850666l3.541334-0.149334h246.037333z" fill="#000000" fill-opacity=".85" p-id="9691"></path></svg>